<svg xmlns="http://www.w3.org/2000/svg" viewBox="0 0 100 100">
  <!-- Background -->
  <rect width="100" height="100" fill="#c17d52" rx="20"/>
  
  <!-- Sparrow silhouette -->
  <g fill="#f8f7f4">
    <!-- Body -->
    <ellipse cx="50" cy="55" rx="18" ry="22"/>
    
    <!-- Head -->
    <circle cx="50" cy="35" r="12"/>
    
    <!-- Beak -->
    <path d="M 58 33 L 66 32 L 58 35 Z" fill="#f8f7f4"/>
    
    <!-- Wing -->
    <path d="M 50 50 Q 35 55 28 48 Q 35 52 50 55 Z" fill="#a86a42"/>
    
    <!-- Tail -->
    <path d="M 45 72 Q 40 80 35 82 Q 42 78 47 75 Q 45 80 42 85 Q 47 80 50 77 Q 52 82 55 87 Q 52 82 53 75 Q 60 78 65 82 Q 58 80 55 72 Z" fill="#a86a42"/>
    
    <!-- Eye -->
    <circle cx="53" cy="33" r="2" fill="#2d2d2d"/>
  </g>
</svg>
